# xmcd
#
# Track frame offsets:
#	150
#	6155
#	18875
#	35470
#	47195
#	61380
#	62820
#	78450
#	94390
#	109385
#	126030
#	142085
#	144725
#	163385
#	177765
#	192985
#	212220
#	230640
#	248540
#	249890
#	265660
#	282160
#	302905
#
# Disc length: 4410 seconds
#
# Revision: 0
# Processed by: cddbd v1.5.2PL0 Copyright (c) Steve Scherf et al.
# Submitted via: EasyCDDAExtractor 11.5.0.1
#
DISCID=53113817
DTITLE=Slick Rick - The Art Of Storytelling
DYEAR=1999
DGENRE=Hip-Hop
TTITLE0=Jail Skit
TTITLE1=Kill Niggaz
TTITLE2=Street Talkin'
TTITLE3=Me and Nas Bring It To Your Hardest
TTITLE4=I Own America pt. 1
TTITLE5=Bugsy Skit
TTITLE6=Who Rotten 'Em
TTITLE7=2 Way Street
TTITLE8=King Piece in The Chess Game
TTITLE9=Trapped In Me
TTITLE10=Impress The Kid
TTITLE11=Q-Tip and Peter Gunz Skit
TTITLE12=I Run This
TTITLE13=Frozen
TTITLE14=Why, Why, Why
TTITLE15=Adults Only
TTITLE16=Memories 
TTITLE17=Unify
TTITLE18=Bugsy Radio Skit
TTITLE19=I Own America pt. 2
TTITLE20=We Turn It On
TTITLE21=La Di Da Di
TTITLE22=The Show
EXTD=
EXTT0=
EXTT1=
EXTT2=
EXTT3=
EXTT4=
EXTT5=
EXTT6=
EXTT7=
EXTT8=
EXTT9=
EXTT10=
EXTT11=
EXTT12=
EXTT13=
EXTT14=
EXTT15=
EXTT16=
EXTT17=
EXTT18=
EXTT19=
EXTT20=
EXTT21=
EXTT22=
PLAYORDER=
